<svg width="48" height="43" viewBox="0 0 48 43" fill="none" xmlns="http://www.w3.org/2000/svg">
<path d="M28.46 21.38C28.46 22.5657 27.9891 23.7029 27.1509 24.5415C26.3127 25.3801 25.1757 25.8515 23.99 25.852C22.804 25.852 21.6665 25.3808 20.8278 24.5422C19.9892 23.7035 19.518 22.566 19.518 21.38C19.518 20.1943 19.9889 19.0571 20.8271 18.2185C21.6653 17.3799 22.8023 16.9085 23.988 16.908C25.174 16.908 26.3115 17.3792 27.1502 18.2178C27.9888 19.0565 28.46 20.194 28.46 21.38ZM33.756 0C31.064 0 27.542 1.92 23.98 5.244C20.42 1.938 16.896 0.04 14.206 0.04C13.386 0.04 12.64 0.226 11.994 0.596C9.244 2.182 8.628 7.124 10.048 13.326C3.96 15.206 0 18.212 0 21.38C0 24.56 3.98 27.574 10.086 29.44C8.678 35.666 9.306 40.616 12.062 42.2C12.702 42.574 13.442 42.75 14.266 42.75C16.956 42.75 20.48 40.83 24.042 37.502C27.602 40.81 31.126 42.708 33.816 42.708C34.636 42.708 35.382 42.528 36.028 42.158C38.776 40.574 39.394 35.632 37.974 29.428C44.04 27.564 48 24.552 48 21.38C48 18.2 44.02 15.186 37.914 13.316C39.322 7.096 38.694 2.142 35.938 0.556C35.302 0.188 34.564 0.002 33.756 0ZM33.746 2.18V2.192C34.196 2.192 34.558 2.28 34.862 2.446C36.194 3.21 36.772 6.116 36.322 9.854C36.214 10.774 36.038 11.744 35.822 12.734C33.902 12.262 31.81 11.9 29.608 11.666C28.288 9.856 26.918 8.212 25.538 6.772C28.722 3.812 31.712 2.188 33.748 2.182L33.746 2.18ZM14.206 2.22C16.23 2.22 19.234 3.836 22.426 6.78C21.054 8.22 19.686 9.854 18.386 11.664C16.172 11.898 14.078 12.26 12.16 12.74C11.936 11.76 11.77 10.812 11.652 9.9C11.192 6.164 11.76 3.26 13.08 2.486C13.46 2.306 13.88 2.23 14.206 2.22ZM23.97 8.32C24.88 9.256 25.79 10.304 26.69 11.448C25.81 11.408 24.91 11.38 24 11.38C23.08 11.38 22.17 11.4 21.28 11.448C22.16 10.304 23.07 9.258 23.97 8.32ZM24 13.572C25.48 13.572 26.954 13.64 28.404 13.758C29.216 14.922 30.008 16.164 30.77 17.478C31.514 18.758 32.19 20.058 32.806 21.37C32.19 22.68 31.514 23.99 30.78 25.27C30.02 26.59 29.234 27.846 28.42 29.01C26.964 29.136 25.488 29.206 24 29.206C22.52 29.206 21.046 29.136 19.596 29.02C18.784 27.856 17.992 26.612 17.23 25.3C16.486 24.02 15.81 22.72 15.194 21.408C15.8 20.094 16.486 18.782 17.22 17.5C17.98 16.18 18.766 14.928 19.58 13.764C21.036 13.636 22.512 13.568 24 13.568V13.572ZM16.73 14.08C16.25 14.834 15.77 15.606 15.322 16.4C14.872 17.18 14.452 17.964 14.052 18.748C13.522 17.436 13.072 16.128 12.7 14.854C13.98 14.554 15.33 14.286 16.73 14.08ZM31.25 14.08C32.64 14.286 33.98 14.54 35.262 14.854C34.902 16.118 34.452 17.418 33.942 18.72C33.542 17.94 33.122 17.154 32.662 16.372C32.212 15.588 31.732 14.824 31.252 14.08H31.25ZM37.376 15.43C38.344 15.73 39.264 16.064 40.126 16.426C43.59 17.906 45.83 19.842 45.83 21.378C45.82 22.914 43.58 24.858 40.116 26.328C39.276 26.688 38.356 27.012 37.406 27.314C36.846 25.398 36.114 23.402 35.206 21.354C36.106 19.32 36.826 17.334 37.376 15.426V15.43ZM10.586 15.438C11.142 17.358 11.876 19.352 12.786 21.398C11.886 23.432 11.162 25.418 10.614 27.326C9.646 27.026 8.726 26.69 7.874 26.326C4.41 24.852 2.17 22.914 2.17 21.378C2.17 19.842 4.41 17.894 7.874 16.426C8.714 16.066 9.634 15.742 10.586 15.438ZM33.942 23.998C34.472 25.312 34.922 26.622 35.294 27.894C34.014 28.208 32.662 28.474 31.262 28.674C31.742 27.924 32.222 27.15 32.672 26.358C33.122 25.578 33.54 24.782 33.942 23.998ZM14.052 24.038C14.452 24.822 14.872 25.604 15.332 26.388C15.792 27.168 16.262 27.932 16.742 28.674C15.352 28.47 14.012 28.214 12.73 27.902C13.09 26.642 13.542 25.338 14.05 24.036L14.052 24.038ZM35.84 30.012C36.064 30.998 36.24 31.948 36.348 32.858C36.808 36.594 36.24 39.498 34.92 40.274C34.626 40.454 34.244 40.53 33.794 40.53C31.77 40.53 28.766 38.916 25.574 35.97C26.946 34.53 28.314 32.898 29.614 31.09C31.828 30.854 33.922 30.492 35.84 30.012ZM12.18 30.032C14.1 30.5 16.192 30.862 18.394 31.096C19.714 32.906 21.084 34.55 22.464 35.988C19.274 38.954 16.28 40.578 14.244 40.578C13.804 40.568 13.432 40.478 13.138 40.314C11.806 39.554 11.228 36.646 11.678 32.908C11.786 31.988 11.964 31.02 12.18 30.032ZM21.3 31.312C22.18 31.352 23.08 31.38 23.99 31.38C24.91 31.38 25.82 31.36 26.71 31.312C25.83 32.456 24.92 33.502 24.02 34.442C23.11 33.502 22.2 32.456 21.3 31.312Z" fill="black"/>
</svg>
